# xmcd CD database file
#
# Track frame offsets:
#	150
#	60882
#	121727
#	166762
#
# Disc length: 2981 seconds
#
# Revision: 0
# Processed by: cddbd v1.5.2PL0 Copyright (c) Steve Scherf et al.
# Submitted via: CDex 1.70beta2
#
DISCID=210ba304
DTITLE=百石 元 - θ派 瞑想
DYEAR=1991
DGENRE=New Age
TTITLE0=メディテーション
TTITLE1=時の支配
TTITLE2=ミクロ・コスモス
TTITLE3=無窮の時
EXTD=YEAR: 1991
EXTT0=
EXTT1=
EXTT2=
EXTT3=
PLAYORDER=
